<?xml version="1.0" encoding="iso-8859-1"?>
<!-- Generator: Adobe Illustrator 19.0.0, SVG Export Plug-In . SVG Version: 6.00 Build 0)  -->
<svg version="1.1" id="Layer_1" xmlns="http://www.w3.org/2000/svg" xmlns:xlink="http://www.w3.org/1999/xlink" x="0px" y="0px"
	 viewBox="0 0 330.004 330.004" style="enable-background:new 0 0 330.004 330.004;" xml:space="preserve">
<g>
	<g>
		<path style="fill:#57575C;" d="M239.717,162.09c-9.004,4.592-18.484,8.374-28.342,11.266L220.704,220H109.299l9.328-46.645
			c-9.857-2.893-19.338-6.674-28.341-11.267l-13.971,69.854L76.3,232.02l-16.007,80.039c-1.624,8.123,3.644,16.025,11.768,17.65
			c0.993,0.199,1.982,0.295,2.957,0.295c7.004,0,13.268-4.932,14.693-12.063L103.299,250h92.738
			c5.566-10.857,14.63-19.631,25.703-24.822c7.07-3.314,14.95-5.178,23.262-5.178c2.156,0,4.28,0.139,6.373,0.381L239.717,162.09z"
			/>
		<path style="fill:#D7143A;" d="M315.002,0h-150h-150c-8.284,0-15,6.716-15,15c0,64.104,36.749,119.785,90.284,147.089
			c9.003,4.593,18.483,8.374,28.341,11.267c14.719,4.316,30.279,6.645,46.375,6.645s31.655-2.327,46.373-6.645
			c9.857-2.892,19.338-6.674,28.342-11.266c53.536-27.305,90.285-82.984,90.285-147.09C330.002,6.716,323.286,0,315.002,0z"/>
		<path style="fill:#B6002B;" d="M15.002,0c-8.284,0-15,6.716-15,15c0,64.104,36.749,119.785,90.284,147.089
			c9.003,4.593,18.483,8.374,28.341,11.267c14.719,4.316,30.279,6.645,46.375,6.645V0H15.002z"/>
	</g>
	<path style="fill:#FFFFFF;" d="M245.002,247.5c-15.164,0-27.5,12.337-27.5,27.5c0,15.164,12.336,27.5,27.5,27.5
		c15.164,0,27.5-12.336,27.5-27.5C272.502,259.837,260.166,247.5,245.002,247.5z"/>
	<path style="fill:#222224;" d="M245.002,330c30.327,0,55-24.672,55-55c0-28.17-21.293-51.448-48.627-54.619
		c-2.093-0.242-4.217-0.381-6.373-0.381c-8.311,0-16.191,1.863-23.262,5.178c-11.073,5.191-20.137,13.965-25.703,24.822
		c-3.849,7.508-6.035,16-6.035,25C190.002,305.328,214.675,330,245.002,330z M245.002,300c-13.785,0-25-11.215-25-25
		s11.215-25,25-25c13.785,0,25,11.215,25,25S258.787,300,245.002,300z"/>
</g>
<g>
</g>
<g>
</g>
<g>
</g>
<g>
</g>
<g>
</g>
<g>
</g>
<g>
</g>
<g>
</g>
<g>
</g>
<g>
</g>
<g>
</g>
<g>
</g>
<g>
</g>
<g>
</g>
<g>
</g>
</svg>
